<svg width="25" height="186" viewBox="0 0 25 186" fill="none" xmlns="http://www.w3.org/2000/svg">
<g clip-path="url(#clip0_1_80)">
<path d="M25.418 12V12.03C25.418 12.573 25.262 13.08 24.993 13.509L25 13.497C24.7309 13.9336 24.346 14.2871 23.888 14.518L23.872 14.525C23.98 14.928 24.042 15.39 24.042 15.868V15.886V15.885C24.0347 17.3817 23.4968 18.8274 22.524 19.965L22.531 19.956C21.4444 21.2552 20.052 22.2641 18.479 22.892L18.41 22.916C16.775 23.602 14.875 24.001 12.881 24.001L12.728 24H12.736L12.59 24.001C10.599 24.001 8.70201 23.602 6.97301 22.88L7.06901 22.916C5.47815 22.2915 4.06848 21.2795 2.96801 19.972L2.95501 19.956C1.98653 18.8207 1.45155 17.3791 1.44501 15.887V15.88C1.44501 15.41 1.50101 14.952 1.60601 14.514L1.59801 14.554C1.12549 14.3236 0.725529 13.9676 0.442007 13.525L0.435007 13.514C0.146199 13.0627 -0.00655241 12.5377 -0.00499306 12.002C-0.00499306 11.225 0.309007 10.521 0.818007 10.011C1.07063 9.74818 1.37378 9.53919 1.70922 9.39656C2.04467 9.25393 2.40549 9.18059 2.77001 9.18095H2.82001H2.81701H2.85601C3.65501 9.18095 4.37501 9.52395 4.87501 10.07L4.87701 10.072C7.02722 8.59919 9.5669 7.79927 12.173 7.77395H12.181L13.827 0.383953C13.8556 0.26135 13.9314 0.154983 14.038 0.0879531L14.04 0.0869531C14.0934 0.0493934 14.1542 0.0236361 14.2184 0.0113942C14.2825 -0.000847621 14.3485 0.000706456 14.412 0.0159531L14.409 0.0149531L19.643 1.16395C19.817 0.810953 20.078 0.524953 20.4 0.325953L20.409 0.320953C20.728 0.120953 21.116 0.00195312 21.532 0.00195312C22.117 0.00195312 22.648 0.236953 23.033 0.618953C23.418 0.987953 23.657 1.50695 23.657 2.08195V2.11795V2.11595V2.14595C23.657 2.72395 23.418 3.24595 23.033 3.61795L23.032 3.61895C22.835 3.81722 22.6007 3.97446 22.3425 4.08157C22.0843 4.18868 21.8075 4.24353 21.528 4.24295C20.967 4.24345 20.4287 4.02158 20.031 3.62595C19.8355 3.43623 19.6801 3.20912 19.5741 2.95813C19.4681 2.70714 19.4137 2.4374 19.414 2.16495V2.12695V2.12895L14.676 1.07895L13.201 7.77295C15.948 7.79295 18.494 8.63795 20.608 10.073L20.561 10.043C20.8235 9.76904 21.1389 9.55117 21.4879 9.4025C21.837 9.25383 22.2126 9.17744 22.592 9.17795C23.372 9.17795 24.078 9.49495 24.589 10.008C25.098 10.504 25.414 11.197 25.414 11.963V12.002V12H25.418ZM5.92901 14.822V14.854C5.92901 15.43 6.16501 15.951 6.54601 16.325C6.73495 16.5226 6.96203 16.6797 7.21351 16.787C7.46498 16.8943 7.73561 16.9494 8.00901 16.949H8.04501H8.04301C8.60723 16.9484 9.14818 16.7241 9.54714 16.3251C9.94611 15.9261 10.1705 15.3852 10.171 14.821V14.787C10.171 14.212 9.93201 13.693 9.54701 13.325L9.54601 13.324C9.35432 13.1283 9.12543 12.9729 8.87282 12.8669C8.6202 12.7609 8.34895 12.7066 8.07501 12.707H8.04101H8.04301C7.48397 12.7117 6.94914 12.9357 6.55373 13.331C6.15832 13.7262 5.93397 14.2609 5.92901 14.82V14.821V14.822ZM17.418 19.858C17.4675 19.8101 17.5069 19.7528 17.5339 19.6894C17.5608 19.626 17.5746 19.5578 17.5746 19.489C17.5746 19.4201 17.5608 19.3519 17.5339 19.2885C17.5069 19.2251 17.4675 19.1678 17.418 19.12C17.3735 19.0748 17.3204 19.0389 17.2618 19.0145C17.2033 18.9901 17.1404 18.9777 17.077 18.978H17.063H17.064H17.056C16.922 18.9778 16.793 19.0285 16.695 19.12C16.2211 19.5614 15.6352 19.8644 15.001 19.996L14.978 20C13.4667 20.3831 11.883 20.3783 10.374 19.986L10.438 20C9.79377 19.8709 9.198 19.5655 8.71701 19.118L8.71901 19.12C8.62116 19.0284 8.49204 18.9776 8.35801 18.978H8.33901C8.27559 18.9778 8.21278 18.9903 8.15424 19.0147C8.09569 19.0391 8.04258 19.0748 7.99801 19.12C7.9478 19.1638 7.90755 19.2179 7.87996 19.2787C7.85236 19.3394 7.83806 19.4053 7.83801 19.472V19.486C7.83801 19.632 7.89901 19.764 7.99801 19.858C8.46699 20.2997 9.03166 20.6273 9.64801 20.815L9.67801 20.823C10.2263 21.022 10.7947 21.1608 11.373 21.237L11.416 21.242C11.86 21.2846 12.29 21.306 12.706 21.306C13.122 21.306 13.552 21.2846 13.996 21.242C14.609 21.1629 15.2113 21.0164 15.792 20.805L15.734 20.824C16.3632 20.6375 16.9402 20.3068 17.419 19.858L17.417 19.86L17.418 19.858ZM17.376 16.95H17.41C17.985 16.95 18.504 16.711 18.872 16.326L18.873 16.325C19.254 15.951 19.49 15.43 19.49 14.854V14.82V14.822C19.4853 14.2629 19.2612 13.7281 18.866 13.3327C18.4708 12.9373 17.936 12.7129 17.377 12.708H17.344C16.768 12.708 16.247 12.944 15.873 13.325C15.6754 13.5139 15.5182 13.741 15.411 13.9925C15.3037 14.2439 15.2486 14.5146 15.249 14.788V14.824V14.822C15.2495 15.3862 15.4739 15.9271 15.8729 16.3261C16.2718 16.7251 16.8128 16.9494 17.377 16.95H17.376Z" fill="white"/>
</g>
<g clip-path="url(#clip1_1_80)">
<path d="M20.317 58.492C18.787 57.802 17.147 57.292 15.432 57.002C15.4167 56.999 15.4009 57.0009 15.3868 57.0074C15.3726 57.0138 15.3608 57.0245 15.353 57.038C15.143 57.407 14.909 57.888 14.745 58.268C12.9261 57.9962 11.0769 57.9962 9.25799 58.268C9.07533 57.8468 8.86934 57.4362 8.64099 57.038C8.63325 57.0244 8.62154 57.0134 8.60743 57.0066C8.59331 56.9998 8.57746 56.9975 8.56199 57C6.84799 57.29 5.20799 57.8 3.67699 58.491C3.66382 58.4965 3.65265 58.5059 3.64499 58.518C0.532992 63.093 -0.320008 67.555 0.0989923 71.961C0.100158 71.9718 0.103508 71.9822 0.108837 71.9917C0.114167 72.0011 0.121364 72.0094 0.129992 72.016C1.94638 73.3384 3.97233 74.3458 6.12299 74.996C6.13798 75.0006 6.15402 75.0006 6.16901 74.9959C6.18399 74.9913 6.19723 74.9823 6.20699 74.97C6.66979 74.351 7.07989 73.6944 7.43299 73.007C7.43789 72.9976 7.44072 72.9872 7.44127 72.9766C7.44183 72.9661 7.44011 72.9555 7.43622 72.9456C7.43233 72.9358 7.42637 72.9268 7.41874 72.9195C7.41111 72.9121 7.40199 72.9065 7.39199 72.903C6.746 72.6597 6.12008 72.3661 5.51999 72.025C5.50921 72.0188 5.50012 72.0101 5.49355 71.9995C5.48698 71.989 5.48312 71.977 5.48233 71.9646C5.48153 71.9522 5.48383 71.9398 5.48901 71.9286C5.49418 71.9173 5.50208 71.9075 5.51199 71.9C5.63799 71.807 5.76399 71.71 5.88399 71.613C5.89479 71.6043 5.9078 71.5987 5.92158 71.5969C5.93535 71.5952 5.94934 71.5973 5.96199 71.603C9.88899 73.367 14.142 73.367 18.023 71.603C18.0357 71.5969 18.0498 71.5946 18.0638 71.5961C18.0778 71.5977 18.091 71.6032 18.102 71.612C18.222 71.71 18.347 71.807 18.474 71.9C18.484 71.9073 18.492 71.917 18.4974 71.9282C18.5027 71.9394 18.5052 71.9517 18.5046 71.9641C18.504 71.9765 18.5004 71.9885 18.494 71.9991C18.4876 72.0098 18.4787 72.0186 18.468 72.025C17.87 72.369 17.248 72.66 16.595 72.902C16.585 72.9056 16.5758 72.9114 16.5682 72.9188C16.5606 72.9263 16.5546 72.9353 16.5507 72.9452C16.5468 72.9551 16.5451 72.9658 16.5457 72.9764C16.5463 72.9871 16.5491 72.9975 16.554 73.007C16.914 73.694 17.326 74.348 17.779 74.969C17.7884 74.9817 17.8015 74.9912 17.8166 74.9963C17.8316 75.0013 17.8478 75.0015 17.863 74.997C20.0173 74.3486 22.0466 73.3407 23.865 72.016C23.8739 72.0098 23.8813 72.0017 23.8868 71.9924C23.8923 71.9831 23.8958 71.9727 23.897 71.962C24.397 66.868 23.059 62.442 20.348 58.52C20.3413 58.5072 20.3303 58.4973 20.317 58.492ZM8.01999 69.278C6.83799 69.278 5.86299 68.209 5.86299 66.898C5.86299 65.586 6.81899 64.518 8.01999 64.518C9.22999 64.518 10.196 65.595 10.177 66.898C10.177 68.21 9.22099 69.278 8.01999 69.278ZM15.995 69.278C14.812 69.278 13.838 68.209 13.838 66.898C13.838 65.586 14.793 64.518 15.995 64.518C17.205 64.518 18.171 65.595 18.152 66.898C18.152 68.21 17.206 69.278 15.995 69.278Z" fill="white"/>
</g>
<path d="M23.6425 112.937C22.8075 113.307 21.9105 113.557 20.9675 113.67C21.9405 113.088 22.6685 112.172 23.0155 111.092C22.1014 111.635 21.1009 112.017 20.0575 112.222C19.3559 111.473 18.4266 110.976 17.4138 110.81C16.4011 110.643 15.3616 110.815 14.4568 111.299C13.5519 111.784 12.8323 112.553 12.4097 113.489C11.9871 114.424 11.8851 115.473 12.1195 116.472C10.2672 116.379 8.45515 115.898 6.80095 115.059C5.14674 114.22 3.68736 113.043 2.51752 111.604C2.11752 112.294 1.88752 113.094 1.88752 113.946C1.88708 114.713 2.07596 115.468 2.4374 116.145C2.79885 116.821 3.32168 117.398 3.95952 117.824C3.2198 117.801 2.4964 117.601 1.84952 117.241V117.301C1.84945 118.377 2.22156 119.419 2.90271 120.252C3.58386 121.085 4.53209 121.656 5.58652 121.869C4.90031 122.055 4.18086 122.082 3.48252 121.949C3.78002 122.875 4.35952 123.684 5.13989 124.264C5.92026 124.844 6.86244 125.165 7.83452 125.183C6.18436 126.478 4.14641 127.181 2.04852 127.178C1.6769 127.178 1.3056 127.156 0.936523 127.113C3.066 128.482 5.54486 129.209 8.07652 129.206C16.6465 129.206 21.3315 122.108 21.3315 115.952C21.3315 115.752 21.3265 115.55 21.3175 115.35C22.2288 114.691 23.0154 113.875 23.6405 112.94L23.6425 112.937Z" fill="#F1F5F8"/>
<path d="M12.0001 170.876C10.2798 170.876 8.8759 172.28 8.8759 174C8.8759 175.72 10.2798 177.124 12.0001 177.124C13.7204 177.124 15.1243 175.72 15.1243 174C15.1243 172.28 13.7204 170.876 12.0001 170.876ZM21.3704 174C21.3704 172.706 21.3822 171.424 21.3095 170.133C21.2368 168.633 20.8947 167.302 19.7978 166.205C18.6986 165.105 17.3697 164.766 15.8697 164.693C14.5759 164.62 13.2939 164.632 12.0025 164.632C10.7087 164.632 9.42668 164.62 8.13527 164.693C6.63527 164.766 5.30402 165.108 4.20714 166.205C3.10792 167.304 2.76808 168.633 2.69542 170.133C2.62277 171.427 2.63449 172.709 2.63449 174C2.63449 175.291 2.62277 176.576 2.69542 177.867C2.76808 179.367 3.11027 180.698 4.20714 181.795C5.30636 182.895 6.63527 183.234 8.13527 183.307C9.42902 183.38 10.7111 183.368 12.0025 183.368C13.2962 183.368 14.5782 183.38 15.8697 183.307C17.3697 183.234 18.7009 182.892 19.7978 181.795C20.897 180.696 21.2368 179.367 21.3095 177.867C21.3845 176.576 21.3704 175.294 21.3704 174ZM12.0001 178.807C9.33996 178.807 7.19308 176.66 7.19308 174C7.19308 171.34 9.33996 169.193 12.0001 169.193C14.6603 169.193 16.8072 171.34 16.8072 174C16.8072 176.66 14.6603 178.807 12.0001 178.807ZM17.004 170.119C16.3829 170.119 15.8814 169.617 15.8814 168.996C15.8814 168.375 16.3829 167.873 17.004 167.873C17.6251 167.873 18.1267 168.375 18.1267 168.996C18.1269 169.144 18.098 169.29 18.0416 169.426C17.9853 169.562 17.9026 169.686 17.7983 169.79C17.694 169.895 17.5702 169.977 17.4339 170.034C17.2976 170.09 17.1515 170.119 17.004 170.119Z" fill="#F1F5F8"/>
<defs>
<clipPath id="clip0_1_80">
<rect width="25" height="24" fill="white"/>
</clipPath>
<clipPath id="clip1_1_80">
<rect width="24" height="24" fill="white" transform="translate(0 54)"/>
</clipPath>
</defs>
</svg>
