<svg width="246" height="64" viewBox="0 0 246 64" fill="none" xmlns="http://www.w3.org/2000/svg">
<rect width="246" height="64" rx="32" fill="#25618B"/>
<g clip-path="url(#clip0_1_3543)">
<path d="M43.9996 21.872C46.7851 21.872 49.2886 22.8335 50.9746 24.563C52.3619 24.7434 53.6706 25.3099 54.7516 26.198C52.8601 22.223 48.9421 20 43.9996 20C39.1246 20 35.1796 22.22 33.2656 26.183C34.2567 25.3741 35.439 24.8333 36.6991 24.6125C38.3536 22.808 40.9606 21.872 43.9996 21.872Z" fill="white"/>
<path d="M50.0004 38C48.4396 38.0018 46.9399 37.3935 45.8214 36.305L45.8184 36.302C45.6891 36.2049 45.5504 36.1209 45.4044 36.0515C44.9647 35.8474 44.485 35.7444 44.0004 35.75C43.3794 35.75 42.9069 35.9045 42.5979 36.0515C42.4513 36.1209 42.3121 36.2048 42.1824 36.302L42.1794 36.305C41.4741 36.9897 40.6114 37.4906 39.6671 37.7637C38.7229 38.0369 37.726 38.0738 36.7641 37.8713C35.8022 37.6689 34.9048 37.2332 34.1508 36.6026C33.3968 35.9719 32.8092 35.1657 32.4398 34.2548C32.0704 33.3439 31.9305 32.3562 32.0323 31.3785C32.1341 30.4009 32.4745 29.4632 33.0237 28.6479C33.5729 27.8327 34.3139 27.1648 35.1817 26.7031C36.0495 26.2414 37.0174 25.9999 38.0004 26H50.0004C51.5917 26 53.1178 26.6321 54.243 27.7574C55.3682 28.8826 56.0004 30.4087 56.0004 32C56.0004 33.5913 55.3682 35.1174 54.243 36.2426C53.1178 37.3679 51.5917 38 50.0004 38Z" fill="white"/>
</g>
<path d="M69.328 27.08H77.088V28.52H70.896V32.296H76.768V33.736H70.896V37.56H77.088V39H69.328V27.08ZM79.1111 27.08H80.4231L86.6791 35.88V27.08H88.2631V39H86.9511L80.6791 30.072V39H79.1111V27.08ZM93.0836 28.52H89.8516V27.08H97.8516V28.52H94.6676V39H93.0836V28.52ZM99.443 27.08H107.203V28.52H101.011V32.296H106.883V33.736H101.011V37.56H107.203V39H99.443V27.08ZM109.226 27.08H113.434C114.223 27.08 114.917 27.2293 115.514 27.528C116.122 27.8267 116.591 28.2533 116.922 28.808C117.253 29.3627 117.418 30.0133 117.418 30.76C117.418 31.592 117.205 32.3067 116.778 32.904C116.362 33.4907 115.786 33.912 115.05 34.168L117.818 39H115.994L113.418 34.44H110.794V39H109.226V27.08ZM113.482 33C114.186 33 114.751 32.7973 115.178 32.392C115.615 31.9867 115.834 31.4427 115.834 30.76C115.834 30.0773 115.615 29.5333 115.178 29.128C114.751 28.7227 114.186 28.52 113.482 28.52H110.794V33H113.482ZM122.527 27.08H123.967L128.063 32.904L132.127 27.08H133.567V39H131.983V30.024L128.111 35.48H127.983L124.095 29.944V39H122.527V27.08ZM136.294 27.08H144.054V28.52H137.862V32.296H143.734V33.736H137.862V37.56H144.054V39H136.294V27.08ZM148.157 28.52H144.925V27.08H152.925V28.52H149.741V39H148.157V28.52ZM156.84 27.08H158.696L162.968 39H161.288L160.312 36.2H155.224L154.248 39H152.568L156.84 27.08ZM159.816 34.76L157.768 28.856L155.72 34.76H159.816ZM162.523 27.08H164.203L167.691 37.08L171.163 27.08H172.843L168.555 39H166.827L162.523 27.08ZM174.427 27.08H182.187V28.52H175.995V32.296H181.867V33.736H175.995V37.56H182.187V39H174.427V27.08ZM184.21 27.08H188.418C189.207 27.08 189.901 27.2293 190.498 27.528C191.106 27.8267 191.575 28.2533 191.906 28.808C192.237 29.3627 192.402 30.0133 192.402 30.76C192.402 31.592 192.189 32.3067 191.762 32.904C191.346 33.4907 190.77 33.912 190.034 34.168L192.802 39H190.978L188.402 34.44H185.778V39H184.21V27.08ZM188.466 33C189.17 33 189.735 32.7973 190.162 32.392C190.599 31.9867 190.818 31.4427 190.818 30.76C190.818 30.0773 190.599 29.5333 190.162 29.128C189.735 28.7227 189.17 28.52 188.466 28.52H185.778V33H188.466ZM198.761 39.192C197.95 39.192 197.225 39.0427 196.585 38.744C195.945 38.4347 195.417 38.0293 195.001 37.528C194.585 37.016 194.297 36.4667 194.137 35.88L195.577 35.432C195.801 36.1467 196.217 36.712 196.825 37.128C197.444 37.544 198.089 37.752 198.761 37.752C199.209 37.752 199.609 37.6613 199.961 37.48C200.324 37.2987 200.606 37.0693 200.809 36.792C201.012 36.5147 201.113 36.2373 201.113 35.96C201.113 35.5227 200.958 35.128 200.649 34.776C200.35 34.424 199.934 34.1893 199.401 34.072L197.385 33.624C196.532 33.4427 195.854 33.0373 195.353 32.408C194.862 31.768 194.617 31.0373 194.617 30.216C194.617 29.5867 194.777 29.0213 195.097 28.52C195.428 28.008 195.876 27.608 196.441 27.32C197.006 27.032 197.63 26.888 198.313 26.888C199.07 26.888 199.742 27.0213 200.329 27.288C200.926 27.5547 201.412 27.912 201.785 28.36C202.169 28.7973 202.441 29.272 202.601 29.784L201.177 30.296C200.942 29.6667 200.553 29.1813 200.009 28.84C199.476 28.4987 198.916 28.328 198.329 28.328C197.924 28.328 197.561 28.4187 197.241 28.6C196.921 28.7707 196.67 28.9947 196.489 29.272C196.308 29.5493 196.217 29.832 196.217 30.12C196.217 30.568 196.377 30.9787 196.697 31.352C197.028 31.7147 197.438 31.9493 197.929 32.056L199.753 32.472C200.713 32.6853 201.449 33.0907 201.961 33.688C202.473 34.2853 202.729 35 202.729 35.832C202.729 36.4613 202.564 37.032 202.233 37.544C201.902 38.056 201.433 38.4613 200.825 38.76C200.228 39.048 199.54 39.192 198.761 39.192ZM205.089 27.08H212.849V28.52H206.657V32.296H212.529V33.736H206.657V37.56H212.849V39H205.089V27.08Z" fill="white"/>
<defs>
<clipPath id="clip0_1_3543">
<rect width="24" height="24" fill="white" transform="translate(32 20)"/>
</clipPath>
</defs>
</svg>
