<svg width="396" height="396" viewBox="0 0 396 396" fill="none" xmlns="http://www.w3.org/2000/svg">
<g filter="url(#filter0_bd_1_3625)">
<circle cx="197.681" cy="194.272" r="77.5" transform="rotate(-20.184 197.681 194.272)" fill="white" fill-opacity="0.28" shape-rendering="crispEdges"/>
</g>
<path d="M155.408 243.254L156.923 241.558L154.645 239.524L155.606 238.449L157.883 240.482L159.484 238.69L156.916 236.396L157.903 235.292L161.827 238.797L155.778 245.57L151.854 242.065L152.84 240.961L155.408 243.254Z" fill="white"/>
<path d="M151.776 228.074L150.54 231.486L154.047 231.048L155.292 232.68L149.923 233.183L148.107 238.213L146.838 236.55L148.064 233.146L144.576 233.586L143.33 231.955L148.682 231.45L150.507 226.411L151.776 228.074Z" fill="white"/>
<path d="M139.872 219.633C140.309 219.422 140.769 219.33 141.253 219.356C141.733 219.375 142.198 219.55 142.646 219.882C143.091 220.206 143.475 220.703 143.799 221.374L144.459 222.743L147.595 221.231L148.385 222.869L140.217 226.808L138.767 223.801C138.462 223.169 138.311 222.578 138.315 222.028C138.319 221.478 138.46 221.001 138.737 220.599C139.01 220.188 139.388 219.866 139.872 219.633ZM142.51 222.082C142.292 221.63 142.029 221.343 141.72 221.222C141.404 221.106 141.059 221.137 140.685 221.318C139.889 221.702 139.706 222.338 140.134 223.228L140.761 224.527L143.136 223.381L142.51 222.082Z" fill="white"/>
<path d="M142.266 211.684L141.451 208.809L142.838 208.416L144.149 213.04L135.425 215.514L134.929 213.764L142.266 211.684Z" fill="white"/>
<path d="M141.774 200.725C141.847 201.571 141.716 202.365 141.38 203.107C141.045 203.849 140.545 204.457 139.882 204.932C139.21 205.407 138.43 205.683 137.541 205.76C136.661 205.836 135.854 205.698 135.119 205.344C134.375 204.991 133.775 204.478 133.316 203.805C132.858 203.132 132.593 202.372 132.519 201.526C132.445 200.672 132.577 199.878 132.913 199.145C133.249 198.403 133.753 197.799 134.425 197.332C135.088 196.857 135.86 196.582 136.74 196.506C137.629 196.429 138.445 196.567 139.189 196.92C139.923 197.265 140.519 197.774 140.977 198.447C141.435 199.12 141.701 199.88 141.774 200.725ZM140.156 200.865C140.109 200.322 139.947 199.853 139.669 199.46C139.383 199.068 139.001 198.775 138.524 198.581C138.046 198.388 137.506 198.317 136.902 198.37C136.297 198.422 135.781 198.584 135.353 198.856C134.916 199.128 134.594 199.482 134.388 199.917C134.183 200.352 134.103 200.842 134.15 201.385C134.197 201.929 134.36 202.402 134.638 202.804C134.916 203.197 135.293 203.49 135.771 203.684C136.239 203.878 136.776 203.949 137.38 203.896C137.984 203.844 138.505 203.682 138.942 203.409C139.379 203.137 139.705 202.782 139.919 202.347C140.124 201.903 140.203 201.409 140.156 200.865Z" fill="white"/>
<path d="M142.073 187.732L138.318 189.278L138.211 190.129L141.717 190.568L141.491 192.373L132.493 191.245L132.916 187.868C133.004 187.172 133.203 186.594 133.513 186.136C133.815 185.676 134.192 185.352 134.643 185.164C135.087 184.967 135.567 184.901 136.082 184.965C136.675 185.039 137.191 185.279 137.629 185.683C138.059 186.086 138.321 186.638 138.417 187.34L142.335 185.644L142.073 187.732ZM136.857 189.959L137.046 188.451C137.108 187.961 137.038 187.581 136.836 187.312C136.625 187.041 136.309 186.879 135.888 186.826C135.476 186.775 135.143 186.855 134.889 187.068C134.627 187.279 134.465 187.63 134.404 188.12L134.215 189.628L136.857 189.959Z" fill="white"/>
<path d="M136.553 177.792L138.721 178.477L139.641 175.566L141.017 176.001L140.096 178.912L142.388 179.637L143.426 176.354L144.838 176.8L143.252 181.817L134.593 179.08L136.179 174.063L137.591 174.509L136.553 177.792Z" fill="white"/>
<path d="M150.606 162.49L148.562 165.467L149.648 166.938L148.567 168.513L142.926 160.684L144.124 158.938L153.457 161.39L152.369 162.975L150.606 162.49ZM149.127 162.073L145.257 161.008L147.641 164.237L149.127 162.073Z" fill="white"/>
<path d="M161.777 153.048L160.446 154.287L153.191 152.539L157.431 157.094L156.1 158.333L149.912 151.686L151.243 150.447L158.507 152.205L154.258 147.641L155.589 146.401L161.777 153.048Z" fill="white"/>
<path d="M163.408 140.992C164.23 140.51 165.046 140.248 165.854 140.206C166.67 140.159 167.421 140.336 168.108 140.737C168.798 141.126 169.373 141.713 169.833 142.497C170.292 143.282 170.524 144.07 170.526 144.862C170.531 145.642 170.314 146.376 169.875 147.065C169.443 147.75 168.816 148.334 167.994 148.815L165.259 150.418L160.674 142.595L163.408 140.992ZM167.156 147.514C167.978 147.033 168.482 146.436 168.668 145.725C168.853 145.014 168.707 144.251 168.23 143.437C167.752 142.622 167.156 142.118 166.44 141.925C165.72 141.725 164.95 141.866 164.128 142.347L163.018 142.998L166.047 148.165L167.156 147.514Z" fill="white"/>
<path d="M181.239 135.126L181.768 137.337L184.737 136.627L185.072 138.029L182.103 138.74L182.662 141.077L186.011 140.276L186.355 141.717L181.238 142.941L179.125 134.108L184.243 132.885L184.587 134.325L181.239 135.126Z" fill="white"/>
<path d="M198.101 140.715L196.284 140.789L191.916 134.738L192.169 140.956L190.352 141.03L189.983 131.956L191.8 131.883L196.168 137.946L195.915 131.715L197.733 131.642L198.101 140.715Z" fill="white"/>
<path d="M210.005 133.093L209.768 134.542L207.383 134.152L206.157 141.653L204.362 141.359L205.588 133.859L203.203 133.469L203.44 132.02L210.005 133.093Z" fill="white"/>
<path d="M216.726 136.533L215.969 138.677L218.848 139.693L218.368 141.053L215.489 140.037L214.689 142.304L217.936 143.449L217.443 144.846L212.481 143.095L215.503 134.531L220.465 136.282L219.972 137.679L216.726 136.533Z" fill="white"/>
<path d="M225.208 148.809L225.231 144.748L224.487 144.321L222.729 147.387L221.151 146.482L225.663 138.616L228.615 140.309C229.224 140.658 229.68 141.064 229.983 141.528C230.291 141.984 230.444 142.456 230.443 142.945C230.454 143.431 230.331 143.899 230.072 144.35C229.775 144.868 229.355 145.252 228.813 145.5C228.276 145.741 227.665 145.77 226.981 145.587L227.034 149.856L225.208 148.809ZM225.166 143.138L226.484 143.894C226.912 144.14 227.29 144.222 227.617 144.14C227.948 144.05 228.219 143.821 228.43 143.453C228.637 143.092 228.691 142.754 228.593 142.438C228.499 142.114 228.237 141.83 227.809 141.584L226.491 140.828L225.166 143.138Z" fill="white"/>
<path d="M245.307 154.023L244.241 155.033L242.579 153.279L237.063 158.509L235.812 157.189L241.327 151.96L239.664 150.206L240.73 149.196L245.307 154.023Z" fill="white"/>
<path d="M252.966 165.035L245.264 169.823L244.304 168.278L247.581 166.241L245.53 162.942L242.253 164.979L241.293 163.434L248.994 158.646L249.954 160.191L246.788 162.16L248.839 165.459L252.005 163.49L252.966 165.035Z" fill="white"/>
<path d="M254.973 172.989L252.847 173.794L253.928 176.649L252.58 177.16L251.498 174.305L249.25 175.156L250.47 178.376L249.085 178.9L247.221 173.98L255.714 170.763L257.577 175.684L256.192 176.208L254.973 172.989Z" fill="white"/>
<path d="M260.935 197.726L251.876 198.138L251.793 196.321L257.685 196.053L251.683 193.894L251.62 192.519L257.401 189.81L251.509 190.079L251.426 188.262L260.485 187.849L260.579 189.913L253.975 193.101L260.842 195.675L260.935 197.726Z" fill="white"/>
<path d="M258.551 205.761L256.31 205.377L255.794 208.386L254.373 208.143L254.889 205.133L252.52 204.727L251.938 208.121L250.478 207.87L251.367 202.684L260.318 204.219L259.429 209.405L257.969 209.154L258.551 205.761Z" fill="white"/>
<path d="M255.909 220.685L254.528 220.185L255.35 217.913L248.203 215.328L248.822 213.618L255.969 216.203L256.791 213.93L258.171 214.429L255.909 220.685Z" fill="white"/>
<path d="M244.265 226.961L246.152 223.881L244.99 222.469L245.988 220.84L252.028 228.365L250.922 230.17L241.475 228.207L242.479 226.568L244.265 226.961ZM245.764 227.3L249.684 228.163L247.135 225.062L245.764 227.3Z" fill="white"/>
<path d="M239.884 243.543L235.644 234.864L237.174 233.271L246.019 237.151L244.67 238.557L237.74 235.364L241.224 242.147L239.884 243.543Z" fill="white"/>
<path d="M233.481 246.681L232.167 244.825L229.675 246.589L228.842 245.412L231.334 243.648L229.945 241.687L227.135 243.676L226.28 242.467L230.574 239.427L235.821 246.839L231.526 249.879L230.671 248.67L233.481 246.681Z" fill="white"/>
<path d="M218.562 246.52L221.864 248.883L222.642 248.522L221.154 245.317L222.804 244.551L226.622 252.777L223.534 254.21C222.898 254.505 222.303 254.643 221.749 254.623C221.199 254.611 220.725 254.463 220.326 254.18C219.923 253.909 219.613 253.537 219.394 253.066C219.142 252.524 219.072 251.96 219.182 251.374C219.295 250.796 219.624 250.281 220.168 249.828L216.653 247.406L218.562 246.52ZM223.216 249.76L221.837 250.4C221.39 250.607 221.105 250.868 220.983 251.183C220.865 251.505 220.896 251.858 221.075 252.243C221.25 252.62 221.494 252.86 221.809 252.962C222.128 253.072 222.511 253.023 222.959 252.815L224.337 252.176L223.216 249.76Z" fill="white"/>
<path d="M209.871 249.351C210.485 249.2 211.066 249.169 211.614 249.258C212.153 249.349 212.615 249.557 212.997 249.882C213.38 250.207 213.642 250.638 213.782 251.175L211.89 251.638C211.776 251.283 211.579 251.028 211.301 250.873C211.014 250.721 210.668 250.694 210.264 250.793C209.852 250.894 209.552 251.07 209.364 251.321C209.178 251.581 209.124 251.87 209.202 252.19C209.266 252.451 209.399 252.646 209.6 252.775C209.801 252.904 210.035 252.985 210.301 253.017C210.562 253.061 210.917 253.09 211.366 253.104C211.979 253.132 212.486 253.182 212.887 253.253C213.282 253.335 213.65 253.508 213.991 253.772C214.326 254.047 214.561 254.462 214.697 255.017C214.825 255.538 214.806 256.025 214.64 256.475C214.474 256.926 214.18 257.31 213.759 257.628C213.339 257.953 212.827 258.191 212.221 258.339C211.312 258.562 210.522 258.519 209.849 258.211C209.169 257.914 208.704 257.377 208.451 256.601L210.394 256.125C210.485 256.424 210.676 256.64 210.968 256.773C211.253 256.918 211.593 256.941 211.988 256.844C212.333 256.76 212.589 256.603 212.756 256.375C212.915 256.149 212.953 255.868 212.87 255.531C212.813 255.296 212.689 255.117 212.498 254.994C212.301 254.882 212.077 254.803 211.825 254.758C211.566 254.723 211.212 254.694 210.76 254.671C210.147 254.643 209.639 254.589 209.236 254.509C208.833 254.43 208.46 254.254 208.116 253.981C207.773 253.708 207.535 253.299 207.401 252.752C207.285 252.281 207.3 251.813 207.445 251.35C207.59 250.886 207.868 250.475 208.279 250.115C208.693 249.764 209.223 249.51 209.871 249.351Z" fill="white"/>
<path d="M201.075 258.511L200.941 256.242L197.894 256.421L197.809 254.982L200.857 254.802L200.715 252.403L197.278 252.605L197.191 251.127L202.444 250.817L202.978 259.883L197.725 260.192L197.638 258.714L201.075 258.511Z" fill="white"/>
<g clip-path="url(#clip0_1_3625)">
<path d="M195.907 187.998C195.658 188.089 195.456 188.276 195.345 188.517C195.233 188.757 195.222 189.032 195.314 189.281L196.694 193.036C196.785 193.285 196.972 193.487 197.213 193.598C197.454 193.71 197.729 193.721 197.978 193.629C198.226 193.538 198.429 193.351 198.54 193.11C198.651 192.87 198.663 192.595 198.571 192.346L197.191 188.591C197.099 188.342 196.913 188.14 196.672 188.029C196.431 187.917 196.156 187.906 195.907 187.998Z" fill="white"/>
<path fill-rule="evenodd" clip-rule="evenodd" d="M189.434 193.574C188.702 191.583 188.791 189.382 189.682 187.456C190.572 185.53 192.191 184.037 194.183 183.305C196.174 182.573 198.375 182.662 200.3 183.553C202.226 184.443 203.719 186.062 204.452 188.054L207.212 195.562C207.944 197.554 207.855 199.754 206.964 201.68C206.074 203.606 204.455 205.099 202.463 205.831C200.472 206.563 198.271 206.474 196.345 205.584C194.42 204.693 192.926 203.074 192.194 201.083L189.434 193.574ZM202.574 188.744L205.335 196.252C205.884 197.746 205.817 199.396 205.149 200.841C204.481 202.285 203.267 203.405 201.773 203.954C200.28 204.503 198.629 204.436 197.185 203.769C195.741 203.101 194.621 201.886 194.072 200.393L191.311 192.884C190.762 191.39 190.829 189.74 191.497 188.296C192.165 186.851 193.379 185.731 194.873 185.182C196.366 184.633 198.017 184.7 199.461 185.368C200.905 186.036 202.025 187.25 202.574 188.744Z" fill="white"/>
</g>
<defs>
<filter id="filter0_bd_1_3625" x="0.160126" y="0.750732" width="395.042" height="395.042" filterUnits="userSpaceOnUse" color-interpolation-filters="sRGB">
<feFlood flood-opacity="0" result="BackgroundImageFix"/>
<feGaussianBlur in="BackgroundImageFix" stdDeviation="24"/>
<feComposite in2="SourceAlpha" operator="in" result="effect1_backgroundBlur_1_3625"/>
<feColorMatrix in="SourceAlpha" type="matrix" values="0 0 0 0 0 0 0 0 0 0 0 0 0 0 0 0 0 0 127 0" result="hardAlpha"/>
<feOffset dy="4"/>
<feGaussianBlur stdDeviation="60"/>
<feComposite in2="hardAlpha" operator="out"/>
<feColorMatrix type="matrix" values="0 0 0 0 0 0 0 0 0 0 0 0 0 0 0 0 0 0 0.25 0"/>
<feBlend mode="normal" in2="effect1_backgroundBlur_1_3625" result="effect2_dropShadow_1_3625"/>
<feBlend mode="normal" in="SourceGraphic" in2="effect2_dropShadow_1_3625" result="shape"/>
</filter>
<clipPath id="clip0_1_3625">
<rect width="24" height="24" fill="white" transform="translate(182.92 187.445) rotate(-20.184)"/>
</clipPath>
</defs>
</svg>
