<svg width="806" height="270" viewBox="0 0 806 270" fill="none" xmlns="http://www.w3.org/2000/svg">
<path d="M0.368001 2.71999H19.088L54.8 51.104L89.648 2.71999H108.368V110H88.64V37.136L55.52 81.2H53.216L19.952 35.696V110H0.368001V2.71999ZM126.019 2.71999H197.299V20H145.603V47.504H194.419V64.784H145.603V92.72H197.299V110H126.019V2.71999ZM227.788 20H199.996V2.71999H274.876V20H247.516V110H227.788V20ZM304.999 2.71999H330.343L367.351 110H346.039L338.407 86.96H296.935L289.159 110H267.991L304.999 2.71999ZM332.791 69.68L317.671 24.464L302.551 69.68H332.791ZM361.158 2.71999H382.47L409.83 85.232L437.046 2.71999H458.358L421.062 110H398.598L361.158 2.71999ZM467.468 2.71999H538.748V20H487.052V47.504H535.868V64.784H487.052V92.72H538.748V110H467.468V2.71999ZM550.229 2.71999H590.117C597.413 2.71999 603.893 4.06399 609.557 6.752C615.221 9.34399 619.589 13.184 622.661 18.272C625.829 23.36 627.413 29.456 627.413 36.56C627.413 43.856 625.685 50.144 622.229 55.424C618.773 60.608 614.021 64.448 607.973 66.944L632.597 110H610.421L588.245 70.4H569.813V110H550.229V2.71999ZM590.405 53.12C595.685 53.12 599.909 51.632 603.077 48.656C606.245 45.584 607.829 41.552 607.829 36.56C607.829 31.568 606.245 27.584 603.077 24.608C599.909 21.536 595.685 20 590.405 20H569.813V53.12H590.405ZM680.856 111.728C672.408 111.728 665.064 110.144 658.824 106.976C652.68 103.808 647.88 99.824 644.424 95.024C640.968 90.128 638.76 85.04 637.8 79.76L656.232 74.864C657.672 80.72 660.552 85.28 664.872 88.544C669.192 91.808 674.616 93.44 681.144 93.44C686.136 93.44 690.168 92.192 693.24 89.696C696.408 87.2 697.992 84.224 697.992 80.768C697.992 77.6 696.84 74.864 694.536 72.56C692.328 70.16 689.304 68.576 685.464 67.808L669.336 64.64C660.792 63.008 654.072 59.312 649.176 53.552C644.28 47.792 641.832 40.784 641.832 32.528C641.832 26.768 643.464 21.488 646.728 16.688C650.088 11.792 654.504 7.95199 659.976 5.16799C665.544 2.384 671.448 0.991996 677.688 0.991996C685.656 0.991996 692.424 2.336 697.992 5.024C703.56 7.712 707.88 11.12 710.952 15.248C714.12 19.28 716.232 23.552 717.288 28.064L699 33.824C696.984 28.64 694.248 24.944 690.792 22.736C687.336 20.432 682.968 19.28 677.688 19.28C674.712 19.28 672.024 19.904 669.624 21.152C667.32 22.4 665.496 24.032 664.152 26.048C662.904 27.968 662.28 29.936 662.28 31.952C662.28 35.12 663.336 37.904 665.448 40.304C667.56 42.608 670.488 44.096 674.232 44.768L689.496 48.08C698.808 50.096 706.008 53.936 711.096 59.6C716.184 65.168 718.728 71.84 718.728 79.616C718.728 85.184 717.192 90.416 714.12 95.312C711.048 100.208 706.632 104.192 700.872 107.264C695.208 110.24 688.536 111.728 680.856 111.728ZM732.906 2.71999H804.186V20H752.49V47.504H801.306V64.784H752.49V92.72H804.186V110H732.906V2.71999ZM0.368001 160.72H19.088L54.8 209.104L89.648 160.72H108.368V268H88.64V195.136L55.52 239.2H53.216L19.952 193.696V268H0.368001V160.72ZM154.243 160.72H179.587L216.595 268H195.283L187.651 244.96H146.179L138.403 268H117.235L154.243 160.72ZM182.035 227.68L166.915 182.464L151.795 227.68H182.035ZM452.792 160.72H468.056L519.176 229.552V160.72H538.76V268H523.352L472.376 197.872V268H452.792V160.72ZM556.647 160.72H627.927V178H576.231V205.504H625.047V222.784H576.231V250.72H627.927V268H556.647V160.72ZM677.711 269.728C669.263 269.728 661.919 268.144 655.679 264.976C649.535 261.808 644.735 257.824 641.279 253.024C637.823 248.128 635.615 243.04 634.655 237.76L653.087 232.864C654.527 238.72 657.407 243.28 661.727 246.544C666.047 249.808 671.471 251.44 677.999 251.44C682.991 251.44 687.023 250.192 690.095 247.696C693.263 245.2 694.847 242.224 694.847 238.768C694.847 235.6 693.695 232.864 691.391 230.56C689.183 228.16 686.159 226.576 682.319 225.808L666.191 222.64C657.647 221.008 650.927 217.312 646.031 211.552C641.135 205.792 638.687 198.784 638.687 190.528C638.687 184.768 640.319 179.488 643.583 174.688C646.943 169.792 651.359 165.952 656.831 163.168C662.399 160.384 668.303 158.992 674.543 158.992C682.511 158.992 689.279 160.336 694.847 163.024C700.415 165.712 704.735 169.12 707.807 173.248C710.975 177.28 713.087 181.552 714.143 186.064L695.855 191.824C693.839 186.64 691.103 182.944 687.647 180.736C684.191 178.432 679.823 177.28 674.543 177.28C671.567 177.28 668.879 177.904 666.479 179.152C664.175 180.4 662.351 182.032 661.007 184.048C659.759 185.968 659.135 187.936 659.135 189.952C659.135 193.12 660.191 195.904 662.303 198.304C664.415 200.608 667.343 202.096 671.087 202.768L686.351 206.08C695.663 208.096 702.863 211.936 707.951 217.6C713.039 223.168 715.583 229.84 715.583 237.616C715.583 243.184 714.047 248.416 710.975 253.312C707.903 258.208 703.487 262.192 697.727 265.264C692.063 268.24 685.391 269.728 677.711 269.728ZM768.066 269.728C759.618 269.728 752.274 268.144 746.034 264.976C739.89 261.808 735.09 257.824 731.634 253.024C728.178 248.128 725.97 243.04 725.01 237.76L743.442 232.864C744.882 238.72 747.762 243.28 752.082 246.544C756.402 249.808 761.826 251.44 768.354 251.44C773.346 251.44 777.378 250.192 780.45 247.696C783.618 245.2 785.202 242.224 785.202 238.768C785.202 235.6 784.05 232.864 781.746 230.56C779.538 228.16 776.514 226.576 772.674 225.808L756.546 222.64C748.002 221.008 741.282 217.312 736.386 211.552C731.49 205.792 729.042 198.784 729.042 190.528C729.042 184.768 730.674 179.488 733.938 174.688C737.298 169.792 741.714 165.952 747.186 163.168C752.754 160.384 758.658 158.992 764.898 158.992C772.866 158.992 779.634 160.336 785.202 163.024C790.77 165.712 795.09 169.12 798.162 173.248C801.33 177.28 803.442 181.552 804.498 186.064L786.21 191.824C784.194 186.64 781.458 182.944 778.002 180.736C774.546 178.432 770.178 177.28 764.898 177.28C761.922 177.28 759.234 177.904 756.834 179.152C754.53 180.4 752.706 182.032 751.362 184.048C750.114 185.968 749.49 187.936 749.49 189.952C749.49 193.12 750.546 195.904 752.658 198.304C754.77 200.608 757.698 202.096 761.442 202.768L776.706 206.08C786.018 208.096 793.218 211.936 798.306 217.6C803.394 223.168 805.938 229.84 805.938 237.616C805.938 243.184 804.402 248.416 801.33 253.312C798.258 258.208 793.842 262.192 788.082 265.264C782.418 268.24 775.746 269.728 768.066 269.728Z" fill="white"/>
</svg>
