<svg width="433" height="433" viewBox="0 0 433 433" fill="none" xmlns="http://www.w3.org/2000/svg">
<path fill-rule="evenodd" clip-rule="evenodd" d="M432.466 216.132C432.466 236.682 429.726 257.232 424.246 275.956C413.286 314.316 391.822 348.109 363.509 374.596C343.415 393.32 319.212 408.39 292.725 418.436C268.978 427.57 242.948 432.593 216.004 432.593C212.351 432.593 208.241 432.593 204.588 432.137C199.108 431.68 193.171 431.223 187.691 430.767C146.134 425.286 107.774 407.933 77.1771 381.903C65.7603 372.313 55.257 361.353 45.6669 349.479C38.8169 340.346 32.4235 331.213 26.9435 321.166C25.5734 318.883 24.2035 316.143 22.8335 313.859C22.8335 313.859 22.8335 313.859 22.8335 313.403C21.4635 310.663 20.0934 308.379 19.18 305.639C15.5267 297.419 12.33 288.742 9.58994 280.066C7.76326 273.672 5.9367 267.279 4.56669 260.886C3.65335 256.319 2.74002 251.752 2.28335 246.729C0.913338 236.682 0 226.635 0 216.132C0 210.195 -8.36322e-05 204.259 0.913255 198.322C1.36992 194.669 1.82668 191.015 2.28335 187.362C5.02336 165.898 10.96 145.805 19.6367 127.082C23.7467 117.948 28.7702 108.815 34.2502 100.595C43.3836 86.438 53.887 73.1946 66.217 61.3212C105.034 23.4176 158.464 0.127502 216.918 0.127502C219.201 0.127502 221.485 0.127502 223.768 0.127502C226.051 0.127502 228.791 0.127495 231.074 0.584165C243.405 1.4975 255.735 3.32418 267.608 6.0642C274.458 7.89088 281.308 9.71755 287.702 12.0009C292.268 13.3709 296.378 15.1976 300.945 17.0242C304.142 18.3943 307.338 19.7643 310.535 21.1343C310.992 21.5909 311.448 21.591 312.362 22.0476C333.368 32.0943 352.549 45.7944 368.989 62.2345C371.272 64.5179 373.555 66.8012 375.839 69.5412C377.209 71.3679 379.035 72.7379 380.405 74.5646C383.145 77.3046 385.429 80.5013 387.712 83.2413C396.389 94.2013 403.695 106.075 410.089 118.405C417.396 133.018 423.332 148.545 427.442 164.528C430.182 180.512 432.466 197.865 432.466 216.132Z" fill="url(#paint0_radial_1_108)"/>
<defs>
<radialGradient id="paint0_radial_1_108" cx="0" cy="0" r="1" gradientUnits="userSpaceOnUse" gradientTransform="translate(81.9602 114.779) scale(347.532 347.532)">
<stop offset="0.00558659" stop-color="#60DBFF"/>
<stop offset="0.0937306" stop-color="#60D5FF"/>
<stop offset="0.211" stop-color="#5FC4FF"/>
<stop offset="0.3446" stop-color="#5DA9FF"/>
<stop offset="0.4903" stop-color="#5A82FF"/>
<stop offset="0.6442" stop-color="#5751FF"/>
<stop offset="0.6844" stop-color="#5643FF"/>
<stop offset="0.7432" stop-color="#563DF8"/>
<stop offset="0.8282" stop-color="#552EE5"/>
<stop offset="0.9287" stop-color="#5315C6"/>
<stop offset="1" stop-color="#5200AB"/>
</radialGradient>
</defs>
</svg>
